<mxfile host="drawio-plugin" modified="2022-12-02T21:25:28.095Z" agent="5.0 (Windows NT 6.2; Win64; x64) AppleWebKit/537.36 (KHTML, like Gecko) Chrome/98.0.4758.102 Safari/537.36" etag="8bXycEp_M2Be3mw8iDqw" version="20.5.3" type="embed"><diagram id="xHnygXkVBUR13RJTnsND" name="Страница 1"><mxGraphModel dx="3619" dy="2952" grid="1" gridSize="10" guides="1" tooltips="1" connect="1" arrows="1" fold="1" page="1" pageScale="1" pageWidth="827" pageHeight="1169" math="0" shadow="0"><root><mxCell id="0"/><mxCell id="1" parent="0"/><mxCell id="vL7ZrQ4FFCJlr0xHaImM-1" value="RESUME" style="swimlane;childLayout=stackLayout;horizontal=1;startSize=40;horizontalStack=0;rounded=1;fontSize=25;fontStyle=0;strokeWidth=2;resizeParent=0;resizeLast=1;shadow=0;dashed=0;align=center;fillColor=#f8cecc;strokeColor=#b85450;" parent="1" vertex="1"><mxGeometry x="-1250" y="-1010" width="640" height="200" as="geometry"/></mxCell><mxCell id="vL7ZrQ4FFCJlr0xHaImM-2" value="+ String uuid&#10;+ String fullName&#10;+ EnumMap &lt;ContactType, Stringf&gt;contacts&#10;+ EnumMap &lt;SectionType, AbstractSection&gt; sections" style="align=left;strokeColor=none;fillColor=none;spacingLeft=4;fontSize=25;verticalAlign=middle;resizable=0;rotatable=0;part=1;" parent="vL7ZrQ4FFCJlr0xHaImM-1" vertex="1"><mxGeometry y="40" width="640" height="160" as="geometry"/></mxCell><mxCell id="vL7ZrQ4FFCJlr0xHaImM-3" value="" style="edgeStyle=orthogonalEdgeStyle;rounded=0;orthogonalLoop=1;jettySize=auto;html=1;entryX=0;entryY=0.75;entryDx=0;entryDy=0;exitX=0.941;exitY=-0.001;exitDx=0;exitDy=0;exitPerimeter=0;" parent="1" source="vL7ZrQ4FFCJlr0xHaImM-5" target="vL7ZrQ4FFCJlr0xHaImM-2" edge="1"><mxGeometry relative="1" as="geometry"><mxPoint x="-1530" y="-690" as="sourcePoint"/><mxPoint x="-1445" y="-705" as="targetPoint"/></mxGeometry></mxCell><mxCell id="vL7ZrQ4FFCJlr0xHaImM-4" value="" style="edgeStyle=orthogonalEdgeStyle;rounded=0;orthogonalLoop=1;jettySize=auto;html=1;entryX=0;entryY=0.25;entryDx=0;entryDy=0;exitX=0.981;exitY=0.141;exitDx=0;exitDy=0;exitPerimeter=0;" parent="1" source="vL7ZrQ4FFCJlr0xHaImM-5" target="vL7ZrQ4FFCJlr0xHaImM-15" edge="1"><mxGeometry relative="1" as="geometry"><mxPoint x="-1125" y="-655" as="targetPoint"/></mxGeometry></mxCell><mxCell id="vL7ZrQ4FFCJlr0xHaImM-5" value="SECTIONTYPE" style="swimlane;childLayout=stackLayout;horizontal=1;startSize=40;horizontalStack=0;rounded=1;fontSize=25;fontStyle=0;strokeWidth=2;resizeParent=0;resizeLast=1;shadow=0;dashed=0;align=center;fillColor=#FFFFFF;strokeColor=#006EAF;fontColor=#000000;" parent="1" vertex="1"><mxGeometry x="-1610" y="-770" width="250" height="280" as="geometry"/></mxCell><mxCell id="vL7ZrQ4FFCJlr0xHaImM-6" value="" style="group" parent="vL7ZrQ4FFCJlr0xHaImM-5" vertex="1" connectable="0"><mxGeometry y="40" width="250" height="240" as="geometry"/></mxCell><mxCell id="vL7ZrQ4FFCJlr0xHaImM-7" value="&lt;blockquote style=&quot;text-align: center; margin: 0px 0px 0px 40px; border: none; padding: 0px;&quot;&gt;&lt;span style=&quot;font-size: 20px; background-color: initial;&quot;&gt;ACHIEVEMENTS&lt;/span&gt;&lt;/blockquote&gt;&lt;blockquote style=&quot;text-align: center; margin: 0px 0px 0px 40px; border: none; padding: 0px;&quot;&gt;&lt;span style=&quot;color: rgb(36, 41, 47); background-color: rgb(255, 255, 255);&quot;&gt;&lt;font style=&quot;font-size: 20px;&quot;&gt;QUALIFICATIONS&lt;/font&gt;&lt;/span&gt;&lt;span style=&quot;background-color: initial; color: rgba(0, 0, 0, 0); font-size: 0px;&quot;&gt;3CmxGraphModel%3E%3Croot%3E%3CmxCell%20id%3D%220%22%2F%3E%3CmxCell%20id%3D%221%22%20parent%3D%220%22%2F%3E%3CmxCell%20id%3D%222%22%20value%3D%22%22%20style%3D%22strokeWidth%3D2%3Bhtml%3D1%3Bshape%3Dmxgraph.flowchart.annotation_2%3Balign%3Dleft%3BlabelPosition%3Dright%3BpointerEvents%3D1%3Brotation%3D-180%3B%22%20vertex%3D%221%22%20parent%3D%221%22%3E%3CmxGeometry%20x%3D%22-760%22%20y%3D%22320%22%20width%3D%2220%22%20height%3D%2270%22%20as%3D%22geometry%22%2F%3E%3C%2FmxCell%3E%3C%2Froot%3E%3C%2FmxGraphModel%3E&lt;/span&gt;&lt;/blockquote&gt;" style="rounded=0;whiteSpace=wrap;html=1;align=left;strokeColor=#6c8ebf;fillColor=#FFFFFF;strokeWidth=2;" parent="vL7ZrQ4FFCJlr0xHaImM-6" vertex="1"><mxGeometry y="70" width="250" height="70" as="geometry"/></mxCell><mxCell id="vL7ZrQ4FFCJlr0xHaImM-8" value="&lt;blockquote style=&quot;margin: 0 0 0 40px; border: none; padding: 0px;&quot;&gt;&lt;span style=&quot;background-color: initial; font-size: 20px;&quot;&gt;PERSONAL&lt;br&gt;&lt;/span&gt;&lt;span style=&quot;background-color: initial; font-size: 20px;&quot;&gt;OBJECTIVE&lt;/span&gt;&lt;/blockquote&gt;" style="rounded=0;whiteSpace=wrap;html=1;strokeColor=#6c8ebf;align=left;fillColor=#FFFFFF;strokeWidth=2;" parent="vL7ZrQ4FFCJlr0xHaImM-6" vertex="1"><mxGeometry width="250" height="70" as="geometry"/></mxCell><mxCell id="vL7ZrQ4FFCJlr0xHaImM-9" value="&lt;blockquote style=&quot;margin: 0 0 0 40px; border: none; padding: 0px;&quot;&gt;&lt;span style=&quot;font-size: 20px;&quot;&gt;EXPERIENCE&lt;br&gt;&lt;/span&gt;&lt;span style=&quot;font-size: 20px;&quot;&gt;EDUCATION&lt;/span&gt;&lt;/blockquote&gt;" style="rounded=0;whiteSpace=wrap;html=1;align=left;verticalAlign=top;strokeColor=#6c8ebf;fillColor=#FFFFFF;strokeWidth=2;" parent="vL7ZrQ4FFCJlr0xHaImM-6" vertex="1"><mxGeometry y="140" width="250" height="70" as="geometry"/></mxCell><mxCell id="vL7ZrQ4FFCJlr0xHaImM-10" value="" style="edgeStyle=orthogonalEdgeStyle;rounded=0;orthogonalLoop=1;jettySize=auto;html=1;exitX=0.5;exitY=0;exitDx=0;exitDy=0;entryX=0.657;entryY=-0.01;entryDx=0;entryDy=0;entryPerimeter=0;" parent="1" source="vL7ZrQ4FFCJlr0xHaImM-12" target="vL7ZrQ4FFCJlr0xHaImM-16" edge="1"><mxGeometry relative="1" as="geometry"><mxPoint x="-1470" y="-1230" as="sourcePoint"/><mxPoint x="-1180" y="-1280" as="targetPoint"/></mxGeometry></mxCell><mxCell id="vL7ZrQ4FFCJlr0xHaImM-11" value="" style="edgeStyle=orthogonalEdgeStyle;rounded=0;orthogonalLoop=1;jettySize=auto;html=1;entryX=-0.008;entryY=0.616;entryDx=0;entryDy=0;exitX=1;exitY=0;exitDx=0;exitDy=0;entryPerimeter=0;" parent="1" source="vL7ZrQ4FFCJlr0xHaImM-13" target="vL7ZrQ4FFCJlr0xHaImM-2" edge="1"><mxGeometry relative="1" as="geometry"><mxPoint x="-1350.0000000000005" y="-280" as="targetPoint"/></mxGeometry></mxCell><mxCell id="vL7ZrQ4FFCJlr0xHaImM-12" value="CONTACTTYPE" style="swimlane;childLayout=stackLayout;horizontal=1;startSize=40;horizontalStack=0;rounded=1;fontSize=23;fontStyle=0;strokeWidth=2;resizeParent=0;resizeLast=1;shadow=0;dashed=0;align=center;fillColor=#d5e8d4;strokeColor=#82b366;" parent="1" vertex="1"><mxGeometry x="-1590" y="-1025" width="200" height="230" as="geometry"/></mxCell><mxCell id="vL7ZrQ4FFCJlr0xHaImM-13" value="PHONE&#10;SKYPE&#10;EMAIL&#10;LINKEDIN&#10;GITHUB&#10;STACKOF&#10;HOMEPAGE" style="align=left;strokeColor=none;fillColor=none;spacingLeft=30;fontSize=20;verticalAlign=top;resizable=0;rotatable=0;part=1;" parent="vL7ZrQ4FFCJlr0xHaImM-12" vertex="1"><mxGeometry y="40" width="200" height="190" as="geometry"/></mxCell><mxCell id="vL7ZrQ4FFCJlr0xHaImM-14" value="" style="edgeStyle=orthogonalEdgeStyle;rounded=0;orthogonalLoop=1;jettySize=auto;html=1;exitX=0.25;exitY=0;exitDx=0;exitDy=0;" parent="1" source="vL7ZrQ4FFCJlr0xHaImM-15" edge="1"><mxGeometry relative="1" as="geometry"><mxPoint x="-1270" y="-850" as="targetPoint"/><Array as="points"><mxPoint x="-1000" y="-790"/><mxPoint x="-1270" y="-790"/></Array></mxGeometry></mxCell><mxCell id="vL7ZrQ4FFCJlr0xHaImM-15" value="&lt;font color=&quot;#000000&quot;&gt;AbstrSection&lt;/font&gt;" style="whiteSpace=wrap;html=1;fontSize=25;fillColor=#A9C4EB;strokeColor=#006EAF;fontStyle=0;startSize=40;rounded=1;strokeWidth=2;shadow=0;dashed=0;fontColor=#ffffff;" parent="1" vertex="1"><mxGeometry x="-1049" y="-770" width="200" height="70" as="geometry"/></mxCell><mxCell id="vL7ZrQ4FFCJlr0xHaImM-16" value="String&lt;br&gt;" style="whiteSpace=wrap;html=1;fontSize=23;fillColor=#d5e8d4;strokeColor=#82b366;fontStyle=0;startSize=40;rounded=1;strokeWidth=2;shadow=0;dashed=0;" parent="1" vertex="1"><mxGeometry x="-1140" y="-1100" width="120" height="60" as="geometry"/></mxCell><mxCell id="vL7ZrQ4FFCJlr0xHaImM-17" value="" style="edgeStyle=orthogonalEdgeStyle;rounded=0;orthogonalLoop=1;jettySize=auto;html=1;exitX=0;exitY=0.25;exitDx=0;exitDy=0;" parent="1" source="vL7ZrQ4FFCJlr0xHaImM-16" edge="1"><mxGeometry relative="1" as="geometry"><mxPoint x="-1270" y="-1160" as="sourcePoint"/><mxPoint x="-1320" y="-1000" as="targetPoint"/></mxGeometry></mxCell><mxCell id="vL7ZrQ4FFCJlr0xHaImM-18" value="" style="strokeWidth=2;html=1;shape=mxgraph.flowchart.annotation_2;align=left;labelPosition=right;pointerEvents=1;rotation=-180;" parent="1" vertex="1"><mxGeometry x="-1360" y="-590" width="20" height="70" as="geometry"/></mxCell><mxCell id="vL7ZrQ4FFCJlr0xHaImM-19" value="" style="edgeStyle=orthogonalEdgeStyle;rounded=0;orthogonalLoop=1;jettySize=auto;html=1;fontSize=20;exitX=0;exitY=0.75;exitDx=0;exitDy=0;entryX=0.384;entryY=0.011;entryDx=0;entryDy=0;entryPerimeter=0;strokeColor=#FF3333;" parent="1" source="vL7ZrQ4FFCJlr0xHaImM-15" target="vL7ZrQ4FFCJlr0xHaImM-26" edge="1"><mxGeometry relative="1" as="geometry"><mxPoint x="-1170" y="-690" as="targetPoint"/></mxGeometry></mxCell><mxCell id="vL7ZrQ4FFCJlr0xHaImM-20" value="&lt;font color=&quot;#ff3333&quot;&gt;exitends&lt;/font&gt;" style="edgeLabel;html=1;align=center;verticalAlign=middle;resizable=0;points=[];fontSize=12;fontColor=#000000;" parent="vL7ZrQ4FFCJlr0xHaImM-19" vertex="1" connectable="0"><mxGeometry x="-0.3107" relative="1" as="geometry"><mxPoint as="offset"/></mxGeometry></mxCell><mxCell id="vL7ZrQ4FFCJlr0xHaImM-21" value="" style="edgeStyle=orthogonalEdgeStyle;rounded=0;orthogonalLoop=1;jettySize=auto;html=1;fontSize=20;exitX=1;exitY=0.5;exitDx=0;exitDy=0;strokeColor=#FF3333;" parent="1" source="vL7ZrQ4FFCJlr0xHaImM-15" target="vL7ZrQ4FFCJlr0xHaImM-29" edge="1"><mxGeometry relative="1" as="geometry"><Array as="points"><mxPoint x="-760" y="-735"/></Array></mxGeometry></mxCell><mxCell id="vL7ZrQ4FFCJlr0xHaImM-22" value="&lt;font color=&quot;#ff3333&quot; style=&quot;font-size: 12px;&quot;&gt;extends&lt;/font&gt;" style="edgeLabel;html=1;align=center;verticalAlign=middle;resizable=0;points=[];fontSize=20;fontColor=#000000;" parent="vL7ZrQ4FFCJlr0xHaImM-21" vertex="1" connectable="0"><mxGeometry x="-0.1124" y="3" relative="1" as="geometry"><mxPoint x="-27" y="-2" as="offset"/></mxGeometry></mxCell><mxCell id="vL7ZrQ4FFCJlr0xHaImM-23" value="" style="edgeStyle=orthogonalEdgeStyle;rounded=0;orthogonalLoop=1;jettySize=auto;html=1;fontSize=20;exitX=0.5;exitY=1;exitDx=0;exitDy=0;strokeColor=#FF3333;" parent="1" source="vL7ZrQ4FFCJlr0xHaImM-15" target="vL7ZrQ4FFCJlr0xHaImM-32" edge="1"><mxGeometry relative="1" as="geometry"><Array as="points"><mxPoint x="-950" y="-670"/><mxPoint x="-1040" y="-670"/><mxPoint x="-1040" y="-490"/><mxPoint x="-1165" y="-490"/></Array></mxGeometry></mxCell><mxCell id="vL7ZrQ4FFCJlr0xHaImM-24" value="&lt;font color=&quot;#ff3333&quot;&gt;extends&lt;/font&gt;" style="edgeLabel;html=1;align=center;verticalAlign=middle;resizable=0;points=[];fontSize=12;fontColor=#000000;" parent="vL7ZrQ4FFCJlr0xHaImM-23" vertex="1" connectable="0"><mxGeometry x="0.6464" y="-3" relative="1" as="geometry"><mxPoint y="3" as="offset"/></mxGeometry></mxCell><mxCell id="vL7ZrQ4FFCJlr0xHaImM-25" value="" style="edgeStyle=orthogonalEdgeStyle;rounded=0;orthogonalLoop=1;jettySize=auto;html=1;fontFamily=Helvetica;fontSize=20;fontColor=#000000;entryX=0;entryY=0.5;entryDx=0;entryDy=0;entryPerimeter=0;" parent="1" source="vL7ZrQ4FFCJlr0xHaImM-26" target="vL7ZrQ4FFCJlr0xHaImM-40" edge="1"><mxGeometry relative="1" as="geometry"><mxPoint x="-1300" y="-740" as="targetPoint"/><Array as="points"><mxPoint x="-1240" y="-695"/></Array></mxGeometry></mxCell><mxCell id="vL7ZrQ4FFCJlr0xHaImM-26" value="TextSection" style="swimlane;childLayout=stackLayout;horizontal=1;startSize=30;horizontalStack=0;rounded=1;fontSize=20;fontStyle=0;strokeWidth=2;resizeParent=0;resizeLast=1;shadow=0;dashed=0;align=center;strokeColor=#3700CC;fillColor=#A9C4EB;arcSize=16;fontColor=#000000;" parent="1" vertex="1"><mxGeometry x="-1270" y="-660" width="170" height="70" as="geometry"/></mxCell><mxCell id="vL7ZrQ4FFCJlr0xHaImM-27" value="+ String text&#10;" style="align=left;strokeColor=none;fillColor=none;spacingLeft=4;fontSize=20;verticalAlign=top;resizable=0;rotatable=0;part=1;" parent="vL7ZrQ4FFCJlr0xHaImM-26" vertex="1"><mxGeometry y="30" width="170" height="40" as="geometry"/></mxCell><mxCell id="vL7ZrQ4FFCJlr0xHaImM-28" value="" style="edgeStyle=orthogonalEdgeStyle;rounded=0;orthogonalLoop=1;jettySize=auto;html=1;fontSize=20;exitX=-0.003;exitY=0.37;exitDx=0;exitDy=0;exitPerimeter=0;entryX=0;entryY=0.5;entryDx=0;entryDy=0;entryPerimeter=0;" parent="1" source="vL7ZrQ4FFCJlr0xHaImM-29" target="vL7ZrQ4FFCJlr0xHaImM-18" edge="1"><mxGeometry relative="1" as="geometry"><mxPoint x="-1010" y="-610" as="sourcePoint"/><mxPoint x="-1250" y="-530" as="targetPoint"/><Array as="points"><mxPoint x="-1001" y="-624"/><mxPoint x="-1070" y="-624"/><mxPoint x="-1070" y="-340"/><mxPoint x="-1300" y="-340"/><mxPoint x="-1300" y="-555"/></Array></mxGeometry></mxCell><mxCell id="vL7ZrQ4FFCJlr0xHaImM-29" value="OrganizationSections" style="swimlane;childLayout=stackLayout;horizontal=1;startSize=30;horizontalStack=0;rounded=1;fontSize=20;fontStyle=0;strokeWidth=2;resizeParent=0;resizeLast=1;shadow=0;dashed=0;align=center;strokeColor=#6c8ebf;fillColor=#dae8fc;arcSize=16;" parent="1" vertex="1"><mxGeometry x="-1000" y="-640" width="450" height="70" as="geometry"/></mxCell><mxCell id="vL7ZrQ4FFCJlr0xHaImM-30" value="+ Map&lt;Period,Organization&gt; organizations&#10;" style="align=left;strokeColor=none;fillColor=none;spacingLeft=4;fontSize=20;verticalAlign=top;resizable=0;rotatable=0;part=1;" parent="vL7ZrQ4FFCJlr0xHaImM-29" vertex="1"><mxGeometry y="30" width="450" height="40" as="geometry"/></mxCell><mxCell id="vL7ZrQ4FFCJlr0xHaImM-31" value="" style="edgeStyle=orthogonalEdgeStyle;rounded=0;orthogonalLoop=1;jettySize=auto;html=1;fontFamily=Helvetica;fontSize=20;fontColor=#000000;entryX=0;entryY=0.5;entryDx=0;entryDy=0;entryPerimeter=0;exitX=0.363;exitY=0.055;exitDx=0;exitDy=0;exitPerimeter=0;" parent="1" source="vL7ZrQ4FFCJlr0xHaImM-32" target="vL7ZrQ4FFCJlr0xHaImM-41" edge="1"><mxGeometry relative="1" as="geometry"><mxPoint x="-1220" y="-550" as="sourcePoint"/><mxPoint x="-1280" y="-620" as="targetPoint"/><Array as="points"><mxPoint x="-1218" y="-550"/><mxPoint x="-1280" y="-550"/><mxPoint x="-1280" y="-625"/></Array></mxGeometry></mxCell><mxCell id="vL7ZrQ4FFCJlr0xHaImM-32" value="ListSection" style="swimlane;childLayout=stackLayout;horizontal=1;startSize=30;horizontalStack=0;rounded=1;fontSize=20;fontStyle=0;strokeWidth=2;resizeParent=0;resizeLast=1;shadow=0;dashed=0;align=center;strokeColor=#6c8ebf;fillColor=#7EA6E0;arcSize=16;" parent="1" vertex="1"><mxGeometry x="-1280" y="-460" width="170" height="80" as="geometry"/></mxCell><mxCell id="vL7ZrQ4FFCJlr0xHaImM-33" value="+ List&lt;String&gt;text&#10;" style="align=left;strokeColor=none;fillColor=none;spacingLeft=4;fontSize=20;verticalAlign=top;resizable=0;rotatable=0;part=1;" parent="vL7ZrQ4FFCJlr0xHaImM-32" vertex="1"><mxGeometry y="30" width="170" height="50" as="geometry"/></mxCell><mxCell id="vL7ZrQ4FFCJlr0xHaImM-34" value="" style="edgeStyle=orthogonalEdgeStyle;rounded=0;orthogonalLoop=1;jettySize=auto;html=1;fontSize=20;entryX=0.5;entryY=1;entryDx=0;entryDy=0;" parent="1" source="vL7ZrQ4FFCJlr0xHaImM-35" target="vL7ZrQ4FFCJlr0xHaImM-30" edge="1"><mxGeometry relative="1" as="geometry"><mxPoint x="-820" y="-500" as="targetPoint"/></mxGeometry></mxCell><mxCell id="vL7ZrQ4FFCJlr0xHaImM-35" value="Organization" style="swimlane;childLayout=stackLayout;horizontal=1;startSize=30;horizontalStack=0;rounded=1;fontSize=20;fontStyle=0;strokeWidth=2;resizeParent=0;resizeLast=1;shadow=0;dashed=0;align=center;strokeColor=#6c8ebf;fillColor=#dae8fc;arcSize=16;" parent="1" vertex="1"><mxGeometry x="-1000" y="-530" width="210" height="110" as="geometry"/></mxCell><mxCell id="vL7ZrQ4FFCJlr0xHaImM-36" value="+ String organization&#10;+ String positon&#10;" style="align=left;strokeColor=none;fillColor=none;spacingLeft=4;fontSize=20;verticalAlign=top;resizable=0;rotatable=0;part=1;" parent="vL7ZrQ4FFCJlr0xHaImM-35" vertex="1"><mxGeometry y="30" width="210" height="80" as="geometry"/></mxCell><mxCell id="vL7ZrQ4FFCJlr0xHaImM-37" value="" style="edgeStyle=orthogonalEdgeStyle;rounded=0;orthogonalLoop=1;jettySize=auto;html=1;fontFamily=Helvetica;fontSize=20;fontColor=#000000;" parent="1" source="vL7ZrQ4FFCJlr0xHaImM-38" target="vL7ZrQ4FFCJlr0xHaImM-30" edge="1"><mxGeometry relative="1" as="geometry"/></mxCell><mxCell id="vL7ZrQ4FFCJlr0xHaImM-38" value="Period" style="swimlane;childLayout=stackLayout;horizontal=1;startSize=30;horizontalStack=0;rounded=1;fontSize=20;fontStyle=0;strokeWidth=2;resizeParent=0;resizeLast=1;shadow=0;dashed=0;align=center;strokeColor=#6c8ebf;fillColor=#dae8fc;arcSize=16;" parent="1" vertex="1"><mxGeometry x="-780" y="-530" width="170" height="110" as="geometry"/></mxCell><mxCell id="vL7ZrQ4FFCJlr0xHaImM-39" value="+ Date dateFrom&#10;+ Date dateTo" style="align=left;strokeColor=none;fillColor=none;spacingLeft=4;fontSize=20;verticalAlign=top;resizable=0;rotatable=0;part=1;" parent="vL7ZrQ4FFCJlr0xHaImM-38" vertex="1"><mxGeometry y="30" width="170" height="80" as="geometry"/></mxCell><mxCell id="vL7ZrQ4FFCJlr0xHaImM-40" value="" style="strokeWidth=2;html=1;shape=mxgraph.flowchart.annotation_2;align=left;labelPosition=right;pointerEvents=1;rotation=-180;" parent="1" vertex="1"><mxGeometry x="-1360" y="-730" width="20" height="70" as="geometry"/></mxCell><mxCell id="vL7ZrQ4FFCJlr0xHaImM-41" value="" style="strokeWidth=2;html=1;shape=mxgraph.flowchart.annotation_2;align=left;labelPosition=right;pointerEvents=1;rotation=-180;" parent="1" vertex="1"><mxGeometry x="-1360" y="-660" width="20" height="70" as="geometry"/></mxCell></root></mxGraphModel></diagram></mxfile>